<svg width="52" height="52" viewBox="0 0 52 52" fill="none" xmlns="http://www.w3.org/2000/svg">
<circle cx="26" cy="26" r="25.5" fill="white" stroke="#4E4E4E"/>
<path d="M31.1136 22.6061C31.1136 21.0931 30.5126 19.6422 29.4428 18.5723C28.373 17.5025 26.922 16.9015 25.4091 16.9015C23.8962 16.9015 22.4452 17.5025 21.3754 18.5723C20.3056 19.6422 19.7045 21.0931 19.7045 22.6061C19.7045 29.2614 16.8523 31.1629 16.8523 31.1629H33.9659C33.9659 31.1629 31.1136 29.2614 31.1136 22.6061Z" stroke="#4E4E4E" stroke-width="2" stroke-linecap="round" stroke-linejoin="round"/>
<path d="M27.0539 34.9659C26.8867 35.2541 26.6468 35.4933 26.3582 35.6595C26.0695 35.8258 25.7422 35.9133 25.4091 35.9133C25.076 35.9133 24.7487 35.8258 24.46 35.6595C24.1714 35.4933 23.9314 35.2541 23.7643 34.9659" stroke="#4E4E4E" stroke-width="2" stroke-linecap="round" stroke-linejoin="round"/>
<circle cx="44" cy="8" r="7" fill="#FF3636"/>
</svg>
