<svg width="33" height="31" viewBox="0 0 33 31" fill="none" xmlns="http://www.w3.org/2000/svg">
<path fill-rule="evenodd" clip-rule="evenodd" d="M28.3244 7.48424H31.0857C31.4643 7.48424 31.773 7.79553 31.773 8.17741V25.579C31.773 25.9609 31.4643 26.2722 31.0857 26.2722H28.3244C27.9458 26.2722 27.6371 25.9609 27.6371 25.579V8.17741C27.6371 7.79555 27.9458 7.48399 28.3244 7.48399V7.48424ZM22.0248 8.71812C21.5365 8.71812 21.1016 8.94606 20.8181 9.30235L15.8897 7.69154C15.8505 6.86536 15.1737 6.20763 14.3446 6.20763C13.4901 6.20763 12.7978 6.90596 12.7978 7.76777C12.7978 7.92833 12.8219 8.08275 12.8663 8.22831L6.32644 13.3641C6.08802 13.5522 6.04585 13.8994 6.23186 14.1399C6.41835 14.3804 6.76258 14.4229 7.00098 14.2353L13.5389 9.10048C13.7735 9.24481 14.0489 9.32817 14.3439 9.32817C14.8322 9.32817 15.2671 9.10023 15.5506 8.74395L20.4793 10.3553C20.5185 11.1814 21.1953 11.8392 22.0244 11.8392C22.8788 11.8392 23.5712 11.1408 23.5712 10.279C23.5712 10.0484 23.5217 9.8293 23.4325 9.63237L28.9839 3.98536L28.8801 4.92169C28.8469 5.22561 29.0644 5.49928 29.3657 5.53272C29.667 5.56616 29.9384 5.34683 29.9715 5.04292L30.2467 2.56118C30.3072 2.20759 30.0164 1.88305 29.6573 1.91427L27.157 2.13532C26.8545 2.16188 26.6302 2.43063 26.6566 2.73578C26.6829 3.04093 26.9493 3.26714 27.2519 3.24058L28.2592 3.15132L22.6539 8.85291C22.4616 8.76636 22.2487 8.71817 22.0244 8.71817L22.0248 8.71812ZM1.84986 29.0052V0H0V30.871H33V29.0052L1.84986 29.0052ZM5.28311 18.1217H8.04446C8.42305 18.1217 8.7317 18.433 8.7317 18.8149V25.5785C8.7317 25.9604 8.42307 26.2717 8.04446 26.2717H5.28311C4.90451 26.2717 4.59586 25.9604 4.59586 25.5785V18.8149C4.59586 18.4335 4.90449 18.1217 5.28311 18.1217ZM12.9638 12.9566H15.7251C16.1037 12.9566 16.4124 13.2679 16.4124 13.6498V25.5788C16.4124 25.9607 16.1037 26.272 15.7251 26.272H12.9638C12.5852 26.272 12.2765 25.9607 12.2765 25.5788V13.6504C12.2765 13.2686 12.5852 12.957 12.9638 12.957V12.9566ZM20.6445 14.6955H23.4058C23.7844 14.6955 24.0935 15.0068 24.0931 15.3892V25.5797C24.0931 25.9615 23.7844 26.2733 23.4058 26.2733H20.6445C20.2659 26.2733 19.9567 25.9621 19.9572 25.5797V15.3892C19.9567 15.0069 20.2658 14.6955 20.6445 14.6955Z" fill="#CBCBCB"/>
</svg>
