<svg width="21" height="32" viewBox="0 0 21 32" fill="none" xmlns="http://www.w3.org/2000/svg">
<path d="M8.78078 0.000218161C8.32806 0.000218161 7.9613 0.356184 7.9613 0.795597V7.38531C7.9613 8.01048 7.43724 8.51912 6.79314 8.51912C6.14903 8.51912 5.62498 8.01047 5.62498 7.38531C5.62498 7.36844 5.62109 7.35247 5.61972 7.33604V0.795757C5.61972 0.356344 5.25297 0.000377805 4.80024 0.000377805C4.34752 0.000377805 3.98077 0.356344 3.98077 0.795757V7.35422C3.98077 7.35955 3.98237 7.36443 3.98237 7.36976C3.98237 7.37508 3.98077 7.37997 3.98077 7.38529C3.98077 8.01046 3.4567 8.5191 2.8126 8.5191C2.16849 8.5191 1.64444 8.01045 1.64444 7.38529C1.64444 7.36776 1.6401 7.35156 1.63918 7.33447L1.63895 0.79589C1.63895 0.356477 1.2722 0.000511315 0.819476 0.000511315C0.366751 0.000511315 0 0.356477 0 0.79589V7.99805C0 9.72243 1.00608 11.3059 2.55355 12.1086L1.90417 29.3115C1.90417 31.0092 3.63209 31.8002 4.79979 31.8002C5.98352 31.8002 7.69541 30.914 7.69517 29.2822L7.04808 12.1071C8.5942 11.3038 9.60005 9.71902 9.60005 7.99753V0.795379C9.60027 0.356188 9.23352 0 8.7808 0L8.78078 0.000218161Z" fill="#44ACA1"/>
<path d="M21 9.44468C21 3.44238 19.2506 0 16.1996 0C13.1489 0 11.4 3.44244 11.4 9.44468C11.4 11.0467 12.3948 12.5307 13.9234 13.2893L13.3037 29.3126C13.3037 31.0096 15.0317 31.8001 16.1999 31.8001C17.3836 31.8001 19.096 30.9144 19.0953 29.2823L18.4635 13.2958C20.0003 12.5396 21 11.0539 21 9.44479V9.44468Z" fill="#44ACA1"/>
</svg>
