<svg width="21" height="31" viewBox="0 0 21 31" fill="none" xmlns="http://www.w3.org/2000/svg">
<path d="M6.75478 29.0824C7.41708 30.2247 8.70398 31 10.1836 31C11.6633 31 12.9498 30.2247 13.6125 29.0824H6.75478Z" fill="#CBCBCB"/>
<path d="M13.9177 23.9686C14.5966 23.9686 15.2754 23.3295 15.2754 22.6904C15.2754 17.2575 20.3673 16.5196 20.3673 9.58748C20.3673 4.29217 15.8077 0 10.1836 0C4.55929 0 0 4.29217 0 9.58748C0 16.5196 5.09181 17.2575 5.09181 22.6904C5.09181 23.3295 5.77066 23.9686 6.44951 23.9686H13.9177Z" fill="#CBCBCB"/>
<path d="M14.5968 26.5254C14.5968 27.0526 14.1387 27.4842 13.5784 27.4842H6.78933C6.22934 27.4842 5.77091 27.0528 5.77091 26.5254C5.77091 25.9982 6.22909 25.5666 6.78933 25.5666H13.5784C14.1384 25.5668 14.5968 25.9982 14.5968 26.5254Z" fill="#CBCBCB"/>
</svg>
