<svg width="14" height="14" viewBox="0 0 14 14" fill="none" xmlns="http://www.w3.org/2000/svg">
<path d="M5.83333 12.8333H8.16667C11.0833 12.8333 12.25 11.6667 12.25 8.75V5.25C12.25 2.33333 11.0833 1.16666 8.16667 1.16666H5.83333C2.91667 1.16666 1.75 2.33333 1.75 5.25V8.75C1.75 11.6667 2.91667 12.8333 5.83333 12.8333Z" stroke="#ACACAC" stroke-linecap="round" stroke-linejoin="round"/>
<path d="M10.0625 4.83583C9.21854 4.0861 8.12888 3.672 7 3.672C5.87112 3.672 4.78146 4.0861 3.9375 4.83583L5.20917 6.8775C5.70213 6.43795 6.33953 6.19505 7 6.19505C7.66047 6.19505 8.29787 6.43795 8.79083 6.8775L10.0625 4.83583Z" stroke="#ACACAC" stroke-linecap="round" stroke-linejoin="round"/>
</svg>
