<svg width="33" height="31" viewBox="0 0 33 31" fill="none" xmlns="http://www.w3.org/2000/svg">
<path d="M9.65477 31C11.3127 31 12.6566 29.656 12.6566 27.9981V22.7007C12.6566 21.0428 14.0006 19.6988 15.6585 19.6988H17.2595C18.9174 19.6988 20.2614 21.0428 20.2614 22.7007V27.9981C20.2614 29.656 21.6054 31 23.2633 31H26.7655C28.4233 31 29.7673 29.656 29.7673 27.9981V17.5055C29.7673 16.6364 30.4719 15.9318 31.3411 15.9318C32.787 15.9318 33.4677 14.1456 32.3885 13.1834L18.4568 0.761315C17.3184 -0.253765 15.5997 -0.253764 14.4612 0.761316L0.529574 13.1834C-0.549645 14.1456 0.131019 15.9318 1.57694 15.9318C2.44611 15.9318 3.15071 16.6364 3.15071 17.5055V27.9981C3.15071 29.656 4.4947 31 6.15259 31H9.65477Z" fill="#CBCBCB"/>
</svg>
